<?xml version="1.0" encoding="UTF-8" standalone="no"?>
<svg width="190px" height="99px" viewBox="0 0 190 99" version="1.1" xmlns="http://www.w3.org/2000/svg" xmlns:xlink="http://www.w3.org/1999/xlink">
    <!-- Generator: Sketch 47.1 (45422) - http://www.bohemiancoding.com/sketch -->
    <title>logo</title>
    <desc>Created with Sketch.</desc>
    <defs></defs>
    <g id="Page-1" stroke="none" stroke-width="1" fill="none" fill-rule="evenodd">
        <g id="Home-Page-(Logged-Out)" transform="translate(-606.000000, -207.000000)" fill="#FFFFFF">
            <g id="Hero" transform="translate(0.000000, -334.000000)">
                <g id="Intro-text" transform="translate(346.000000, 541.000000)">
                    <g id="CO-logo" transform="translate(260.000000, 0.000000)">
                        <g id="logo">
                            <g id="Page-1">
                                <g id="Crowdsale">
                                    <g id="Header">
                                        <g id="logo">
                                            <path d="M90.7037486,49.159564 L116.003745,74.9139264 C122.74913,81.7779152 131.717384,85.5575264 141.253831,85.5575264 C150.790279,85.5575264 159.754693,81.7779152 166.500079,74.9139264 C180.451549,60.7134973 180.451549,37.613313 166.503918,23.4090425 C159.754693,16.5412128 150.790279,12.7616016 141.253831,12.7616016 C131.717384,12.7616016 122.74913,16.5412128 116.003745,23.4090425 L90.7037486,49.159564 L90.7037486,49.159564 L90.7037486,49.159564 Z M141.253831,98.3060316 C128.338932,98.3060316 116.199541,93.1897289 107.070043,83.9020258 L72.9438424,49.159564 L107.070043,14.424784 C116.195702,5.13708088 128.338932,0.0207782126 141.253831,0.0207782126 C154.168731,0.0207782126 166.308122,5.14092223 175.43378,14.424784 C194.253292,33.5763503 194.253292,64.7504599 175.43378,83.9020258 C166.308122,93.1897289 154.168731,98.3060316 141.253831,98.3060316 L141.253831,98.3060316 L141.253831,98.3060316 L141.253831,98.3060316 Z" id="Fill-18-Copy"></path>
                                            <path d="M48.296502,98.3060316 C35.3816028,98.3060316 23.2422117,93.1897289 14.1165531,83.9020258 C-4.70295825,64.7504599 -4.70295825,33.5763503 14.1165531,14.424784 C23.2422117,5.13708088 35.3816028,0.0207782126 48.296502,0.0207782126 C61.2114011,0.0207782126 73.3507923,5.13708088 82.4764508,14.424784 L84.0888939,16.068761 L75.1551925,25.0491786 L73.5427499,23.4090425 C66.797364,16.5412128 57.8329495,12.7616016 48.292663,12.7616016 C38.7562153,12.7616016 29.7879618,16.5412128 23.0425759,23.4090425 C9.09110626,37.613313 9.09110626,60.7096559 23.0425759,74.9139264 C29.7879618,81.7779152 38.7562153,85.5575264 48.292663,85.5575264 C57.8291105,85.5575264 66.793525,81.7779152 73.5427499,74.9139264 L75.1551925,73.2699489 L84.0888939,82.2503666 L82.4764508,83.9020258 C73.3469533,93.1897289 61.2114011,98.3060316 48.296502,98.3060316" id="Fill-20-Copy"></path>
                                        </g>
                                    </g>
                                </g>
                            </g>
                        </g>
                    </g>
                </g>
            </g>
        </g>
    </g>
</svg>