<svg id="Layer_1" data-name="Layer 1" xmlns="http://www.w3.org/2000/svg" viewBox="0 0 150 150"><defs><style>.cls-1{fill:#f6ae71;}</style></defs><title>Artboard 4</title><polygon class="cls-1" points="50.18 74.25 50.18 86.78 75.5 102.63 95.7 89.98 73.84 76.3 50.18 74.25"/><polygon class="cls-1" points="50.18 54.24 50.18 66.75 73.84 64.71 95.7 51.03 75.5 38.39 50.18 54.24"/><path class="cls-1" d="M117.18,53.51l3.46,13.54,10.8,2.76V9H18.56V110.6L75,145l56.44-34.4V71.21L120.64,74,117.18,87.5,113.73,74l-13.54-3.45,13.54-3.46ZM106,58.28,81.31,70.51,106,82.73V97.24L75.5,116.3,38.59,93.19V47.82L75.5,24.71,106,43.78Z"/></svg>