<svg id="Layer_1" data-name="Layer 1" xmlns="http://www.w3.org/2000/svg" viewBox="0 0 140.58 164"><defs><style>.cls-1{fill:#b84b9c;}</style></defs><title>Artboard 329</title><path class="cls-1" d="M102.49,106V90.79L76.7,78l25.79-12.79V50l-31.87-20L32,54.26v47.48l38.63,24.18ZM44.12,61l26.5-16.58L91.76,57.62,68.88,71.94,44.12,74.07Zm0,21,24.76,2.14L91.76,98.38,70.62,111.61,44.12,95Z"/><path class="cls-1" d="M-1-29.49v215H326.1v-215ZM129.16,77.27l-11.31-2.89-3.61-14.16-3.62,14.16L96.45,78l14.17,3.62,3.62,14.16,3.61-14.16,11.31-2.89V120L70.1,156,11,120V13.64H129.16Z"/></svg>