<svg enable-background="new 0 0 260 30" height="30" viewBox="0 0 260 30" width="260" xmlns="http://www.w3.org/2000/svg" xmlns:xlink="http://www.w3.org/1999/xlink"><linearGradient id="a" gradientUnits="userSpaceOnUse" x1=".5781" x2="255.5059" y1="14.6973" y2="14.6973"><stop offset="0" stop-color="#4867c0"/><stop offset="1" stop-color="#329fec"/></linearGradient><g fill="url(#a)"><path d="m20.298 5.687h-8.33v21.42h-3.06v-21.42h-8.33v-2.72h19.72z"/><path d="m38.692 27.107h-2.992v-9.929c0-1.836-.318-3.201-.952-4.097-.635-.895-1.564-1.343-2.788-1.343-.59 0-1.179.119-1.768.357-.59.238-1.139.561-1.649.969s-.964.896-1.36 1.462c-.397.567-.697 1.19-.901 1.87v10.711h-2.992v-24.82h2.992v10.88c.703-1.292 1.655-2.3 2.856-3.026 1.201-.725 2.516-1.088 3.944-1.088 1.042 0 1.926.193 2.652.578.725.386 1.303.907 1.734 1.564.431.658.742 1.445.935 2.363.192.918.289 1.898.289 2.941z"/><path d="m51.204 27.447c-1.338 0-2.562-.244-3.672-.731-1.111-.487-2.063-1.149-2.856-1.989-.794-.838-1.411-1.818-1.853-2.94s-.663-2.306-.663-3.554c0-1.246.221-2.425.663-3.536.442-1.11 1.065-2.085 1.87-2.924.805-.838 1.762-1.501 2.873-1.989 1.11-.487 2.334-.731 3.672-.731s2.556.25 3.655.748c1.099.499 2.034 1.162 2.805 1.989.77.828 1.365 1.791 1.785 2.89s.629 2.238.629 3.417c0 .249-.006.475-.017.68-.012.203-.029.362-.051.476h-14.722c.068.884.272 1.688.612 2.414s.782 1.349 1.326 1.87 1.161.93 1.853 1.224c.691.295 1.422.442 2.193.442.544 0 1.076-.074 1.598-.221.521-.147 1.008-.346 1.462-.596.453-.249.855-.555 1.207-.918.351-.362.617-.77.799-1.224l2.584.714c-.295.658-.697 1.258-1.207 1.802s-1.1 1.015-1.768 1.411c-.669.396-1.411.709-2.227.936-.816.226-1.666.34-2.55.34zm6.086-10.404c-.068-.838-.278-1.615-.629-2.329-.352-.714-.794-1.32-1.326-1.819-.533-.499-1.15-.889-1.853-1.173-.703-.283-1.451-.425-2.244-.425s-1.542.142-2.244.425c-.703.284-1.321.68-1.853 1.19-.533.51-.964 1.117-1.292 1.819-.329.703-.527 1.474-.595 2.312z"/><path d="m70.958 14.867c0-1.45.255-2.895.765-4.335.51-1.439 1.258-2.731 2.244-3.876.986-1.144 2.193-2.068 3.621-2.771 1.428-.702 3.048-1.054 4.862-1.054 2.153 0 4 .488 5.542 1.462 1.542.975 2.686 2.244 3.434 3.808l-2.414 1.564c-.363-.771-.799-1.417-1.309-1.938s-1.065-.94-1.666-1.258c-.601-.317-1.218-.544-1.853-.68s-1.258-.204-1.87-.204c-1.338 0-2.522.278-3.553.833-1.032.556-1.898 1.281-2.601 2.176-.703.896-1.229 1.904-1.581 3.026s-.527 2.25-.527 3.383c0 1.27.209 2.477.629 3.621s1.003 2.159 1.751 3.043 1.632 1.587 2.652 2.108 2.13.781 3.332.781c.634 0 1.286-.079 1.955-.238.668-.158 1.309-.412 1.921-.765.612-.351 1.184-.793 1.717-1.325.532-.533.969-1.174 1.309-1.922l2.55 1.395c-.386.906-.924 1.705-1.615 2.396-.692.691-1.474 1.275-2.346 1.752-.873.475-1.796.838-2.771 1.088-.975.248-1.927.373-2.856.373-1.655 0-3.174-.361-4.556-1.088-1.383-.725-2.579-1.671-3.587-2.839-1.009-1.167-1.791-2.493-2.346-3.978-.556-1.483-.833-2.997-.833-4.538z"/><path d="m102.985 27.447c-1.338 0-2.556-.25-3.655-.748-1.1-.498-2.04-1.168-2.822-2.006-.782-.839-1.389-1.813-1.819-2.924-.431-1.111-.646-2.279-.646-3.502 0-1.247.221-2.426.663-3.537.442-1.11 1.054-2.085 1.836-2.924.782-.838 1.722-1.507 2.822-2.006 1.099-.498 2.306-.748 3.621-.748 1.314 0 2.527.25 3.638.748 1.11.499 2.057 1.168 2.839 2.006.782.839 1.394 1.813 1.836 2.924s.663 2.29.663 3.537c0 1.223-.216 2.391-.646 3.502-.431 1.11-1.043 2.085-1.836 2.924-.794.838-1.74 1.508-2.839 2.006-1.1.498-2.318.748-3.655.748zm-5.882-9.146c0 .93.153 1.791.459 2.584.306.794.725 1.484 1.258 2.074.532.59 1.156 1.054 1.87 1.395.714.34 1.479.51 2.295.51s1.581-.17 2.295-.51c.714-.341 1.343-.811 1.887-1.412.544-.6.969-1.303 1.275-2.107s.459-1.672.459-2.602c0-.906-.153-1.762-.459-2.566s-.731-1.507-1.275-2.108-1.173-1.071-1.887-1.411-1.479-.51-2.295-.51-1.581.176-2.295.527c-.714.352-1.338.828-1.87 1.428-.533.601-.952 1.304-1.258 2.108s-.459 1.67-.459 2.6z"/><path d="m131 27.107h-2.992v-9.929c0-1.904-.289-3.286-.867-4.148-.578-.861-1.457-1.292-2.635-1.292-.611 0-1.224.119-1.836.357s-1.19.561-1.734.969-1.02.896-1.428 1.462c-.408.567-.714 1.19-.918 1.87v10.711h-2.992v-17.748h2.72v3.808c.703-1.247 1.717-2.244 3.043-2.992s2.772-1.122 4.334-1.122c1.021 0 1.871.187 2.551.561s1.225.896 1.633 1.564c.406.669.695 1.457.865 2.363.172.907.255 1.893.255 2.958v10.608z"/><path d="m136.611 27.107v-15.402h-2.414v-2.346h2.414v-.374c0-2.198.486-3.921 1.461-5.168.975-1.246 2.301-1.87 3.979-1.87.703 0 1.395.097 2.074.289.68.193 1.291.459 1.836.799l-.748 2.21c-.318-.227-.709-.408-1.174-.544s-.924-.204-1.377-.204c-.998 0-1.756.374-2.277 1.122s-.781 1.836-.781 3.264v.476h4.725v2.346h-4.725v15.402z"/><path d="m155.174 27.447c-1.338 0-2.563-.244-3.672-.731-1.111-.487-2.063-1.149-2.855-1.989-.795-.838-1.412-1.818-1.854-2.94s-.664-2.306-.664-3.554c0-1.246.223-2.425.664-3.536.441-1.11 1.064-2.085 1.869-2.924.805-.838 1.764-1.501 2.873-1.989 1.111-.487 2.334-.731 3.672-.731s2.557.25 3.656.748c1.1.499 2.033 1.162 2.805 1.989.77.828 1.365 1.791 1.785 2.89.418 1.1.629 2.238.629 3.417 0 .249-.006.475-.018.68-.012.203-.029.362-.051.476h-14.723c.068.884.273 1.688.613 2.414s.781 1.349 1.326 1.87c.543.521 1.16.93 1.852 1.224.691.295 1.424.442 2.193.442.545 0 1.076-.074 1.598-.221.521-.147 1.01-.346 1.463-.596.453-.249.855-.555 1.207-.918.352-.362.617-.77.799-1.224l2.584.714c-.295.658-.697 1.258-1.207 1.802s-1.1 1.015-1.768 1.411c-.67.396-1.412.709-2.227.936-.815.226-1.664.34-2.549.34zm6.086-10.404c-.068-.838-.277-1.615-.629-2.329s-.793-1.32-1.326-1.819-1.15-.889-1.854-1.173c-.703-.283-1.451-.425-2.244-.425s-1.541.142-2.244.425c-.701.284-1.32.68-1.852 1.19-.533.51-.965 1.117-1.293 1.819-.328.703-.527 1.474-.594 2.312z"/><path d="m176.797 11.977c-1.496.045-2.816.431-3.961 1.156-1.145.726-1.955 1.734-2.43 3.025v10.949h-2.992v-17.748h2.787v4.114c.613-1.224 1.416-2.215 2.414-2.975.998-.759 2.063-1.184 3.195-1.275h.578s.295.012.408.034v2.72z"/><path d="m187.609 27.447c-1.338 0-2.563-.244-3.672-.731-1.111-.487-2.063-1.149-2.855-1.989-.795-.838-1.412-1.818-1.854-2.94s-.664-2.306-.664-3.554c0-1.246.223-2.425.664-3.536.441-1.11 1.064-2.085 1.869-2.924.805-.838 1.764-1.501 2.873-1.989 1.111-.487 2.334-.731 3.672-.731s2.557.25 3.656.748c1.1.499 2.033 1.162 2.805 1.989.77.828 1.365 1.791 1.785 2.89.418 1.1.629 2.238.629 3.417 0 .249-.006.475-.018.68-.012.203-.029.362-.051.476h-14.723c.068.884.273 1.688.613 2.414s.781 1.349 1.326 1.87c.543.521 1.16.93 1.852 1.224.691.295 1.424.442 2.193.442.545 0 1.076-.074 1.598-.221.521-.147 1.01-.346 1.463-.596.453-.249.855-.555 1.207-.918.352-.362.617-.77.799-1.224l2.584.714c-.295.658-.697 1.258-1.207 1.802s-1.1 1.015-1.768 1.411c-.67.396-1.412.709-2.227.936-.814.226-1.664.34-2.549.34zm6.086-10.404c-.068-.838-.277-1.615-.629-2.329s-.793-1.32-1.326-1.819-1.15-.889-1.854-1.173c-.703-.283-1.451-.425-2.244-.425s-1.541.142-2.244.425c-.701.284-1.32.68-1.852 1.19-.533.51-.965 1.117-1.293 1.819-.328.703-.527 1.474-.594 2.312z"/><path d="m215.252 27.107h-2.992v-9.929c0-1.904-.289-3.286-.867-4.148-.578-.861-1.457-1.292-2.635-1.292-.613 0-1.225.119-1.836.357-.613.238-1.191.561-1.734.969-.545.408-1.02.896-1.428 1.462-.408.567-.715 1.19-.918 1.87v10.711h-2.992v-17.748h2.719v3.808c.703-1.247 1.717-2.244 3.043-2.992s2.771-1.122 4.336-1.122c1.02 0 1.869.187 2.549.561.682.374 1.225.896 1.633 1.564.408.669.697 1.457.867 2.363.17.907.256 1.893.256 2.958v10.608z"/><path d="m218.719 18.199c0-1.246.215-2.425.646-3.536.43-1.11 1.041-2.08 1.836-2.907.793-.827 1.738-1.484 2.838-1.972 1.1-.487 2.33-.731 3.689-.731 1.768 0 3.293.391 4.572 1.173 1.281.782 2.25 1.831 2.908 3.145l-2.924.918c-.455-.838-1.088-1.49-1.904-1.955-.816-.464-1.723-.697-2.721-.697-.816 0-1.586.165-2.313.493-.725.329-1.348.788-1.869 1.377-.521.59-.936 1.281-1.24 2.074-.307.794-.459 1.666-.459 2.618 0 .93.158 1.802.475 2.617.318.816.742 1.525 1.275 2.125.533.602 1.156 1.071 1.871 1.412.713.34 1.479.51 2.295.51.52 0 1.037-.074 1.547-.221.51-.148.975-.346 1.393-.596.42-.249.789-.538 1.105-.867.318-.328.545-.686.68-1.07l2.924.884c-.271.657-.65 1.258-1.139 1.802-.486.544-1.059 1.009-1.717 1.395-.658.385-1.389.691-2.193.918-.805.226-1.648.34-2.533.34-1.336 0-2.561-.25-3.672-.748-1.109-.498-2.063-1.168-2.855-2.006-.793-.839-1.41-1.819-1.854-2.941-.441-1.123-.661-2.308-.661-3.554z"/><path d="m246.598 27.447c-1.336 0-2.561-.244-3.672-.731-1.109-.487-2.063-1.149-2.855-1.989-.793-.838-1.41-1.818-1.854-2.94-.441-1.122-.662-2.306-.662-3.554 0-1.246.221-2.425.662-3.536.443-1.11 1.066-2.085 1.871-2.924.805-.838 1.762-1.501 2.873-1.989 1.109-.487 2.334-.731 3.672-.731 1.336 0 2.555.25 3.654.748 1.1.499 2.035 1.162 2.805 1.989.771.828 1.365 1.791 1.785 2.89s.629 2.238.629 3.417c0 .249-.006.475-.016.68-.012.203-.029.362-.051.476h-14.723c.068.884.271 1.688.611 2.414s.783 1.349 1.326 1.87c.545.521 1.162.93 1.854 1.224.691.295 1.422.442 2.193.442.543 0 1.076-.074 1.598-.221.521-.147 1.008-.346 1.461-.596.453-.249.855-.555 1.207-.918.352-.362.617-.77.799-1.224l2.584.714c-.293.658-.695 1.258-1.205 1.802-.512.544-1.102 1.015-1.77 1.411s-1.41.709-2.227.936c-.815.226-1.665.34-2.549.34zm6.086-10.404c-.066-.838-.277-1.615-.629-2.329s-.793-1.32-1.324-1.819c-.533-.499-1.152-.889-1.854-1.173-.703-.283-1.451-.425-2.244-.425s-1.541.142-2.244.425c-.703.284-1.32.68-1.854 1.19-.533.51-.963 1.117-1.291 1.819-.33.703-.527 1.474-.596 2.312z"/></g></svg>